<svg width="43" height="43" viewBox="0 0 43 43" fill="none" xmlns="http://www.w3.org/2000/svg" class="hd__nav__link__icon"><path d="M42.4447 21.0032C42.4447 22.9604 42.1844 24.8588 41.6804 26.648C41.6216 26.8664 41.5544 27.0764 41.4956 27.2864C41.4368 27.488 41.3695 27.6896 41.2939 27.8912C41.2771 27.95 41.252 28.0172 41.2352 28.0676C41.1932 28.1936 41.1512 28.3112 41.1008 28.4288C41.0168 28.6472 40.9328 28.874 40.8404 29.0924C40.664 29.5124 40.4792 29.924 40.2776 30.3356C40.2188 30.4616 40.1516 30.596 40.076 30.7136C40.0172 30.8396 39.95 30.9656 39.8828 31.0916C39.7652 31.31 39.6476 31.5116 39.5216 31.7216C39.4964 31.772 39.4628 31.8224 39.4292 31.8728C39.2444 32.1836 39.0428 32.4944 38.8328 32.7968C38.7236 32.9732 38.5976 33.1412 38.48 33.3092C38.3708 33.4604 38.2616 33.6116 38.1524 33.7544C38.0432 33.8972 37.934 34.04 37.8164 34.1912C37.808 34.1996 37.7996 34.2164 37.7828 34.2248C37.43 34.67 37.0604 35.0984 36.6572 35.51C36.59 35.5772 36.5228 35.6528 36.4472 35.72C36.4388 35.7368 36.422 35.7536 36.4052 35.7704C36.2456 35.93 36.0776 36.0896 35.918 36.2408C35.8004 36.3584 35.6828 36.4676 35.5568 36.5768C35.1116 36.98 34.658 37.3664 34.1792 37.7276C34.1204 37.778 34.0616 37.8284 34.0028 37.8704H33.9944C33.9272 37.9208 33.86 37.9712 33.7928 38.0132C33.692 38.0888 33.5996 38.156 33.4904 38.2316C30.08 40.6256 25.9388 42.02 21.4616 42.02C16.7072 42.02 12.3224 40.4408 8.80281 37.7696C8.72721 37.7192 8.66 37.6604 8.5844 37.61C8.576 37.6016 8.56757 37.5932 8.55077 37.5848C8.54237 37.5764 8.53395 37.568 8.53395 37.568C8.08875 37.2152 7.6436 36.8456 7.2236 36.4592C7.0304 36.2828 6.85397 36.1064 6.66917 35.93C6.13157 35.3924 5.61082 34.8296 5.14042 34.2332C4.89682 33.9308 4.66995 33.6284 4.44315 33.3176C4.30035 33.1412 4.17438 32.948 4.04838 32.7632C3.93918 32.612 3.83839 32.4524 3.74599 32.2928C3.30079 31.5956 2.89764 30.8732 2.53644 30.134C2.50284 30.0752 2.47756 30.0164 2.45236 29.9576C2.30116 29.63 2.15835 29.3024 2.02395 28.9748C1.95675 28.7984 1.88116 28.622 1.82236 28.4456C1.51156 27.6224 1.24282 26.774 1.04122 25.892C0.663216 24.3296 0.469971 22.7 0.469971 21.02C0.469971 18.8528 0.797567 16.7528 1.41077 14.7872C3.35957 8.52082 8.15603 3.50602 14.288 1.28002C15.1196 0.97762 15.968 0.72562 16.8416 0.53242C18.3284 0.19642 19.8824 0.0200195 21.47 0.0200195C23.9984 0.0200195 26.4176 0.465215 28.6604 1.28841C29.5172 1.59921 30.3404 1.96042 31.1384 2.37202C36.6236 5.21962 40.6892 10.4108 42.008 16.6268C42.3188 18.0464 42.47 19.508 42.47 21.02L42.4447 21.0032Z" fill="#FFF3E6"></path> <path d="M36.9093 33.6621C36.9093 33.6621 36.9008 33.6789 36.8924 33.6873C36.2288 35.0145 35.3805 36.2493 34.3893 37.3581C34.0281 37.7613 33.6417 38.1561 33.2385 38.5341H33.2301C33.0705 38.6433 32.9193 38.7525 32.7513 38.8701C29.5425 41.0877 25.6449 42.3897 21.4365 42.3897C16.8585 42.3897 12.6417 40.8525 9.28165 38.2737C9.28165 38.2737 9.27323 38.2653 9.26483 38.2653C8.92883 37.9377 8.60972 37.6017 8.29892 37.2489C8.21492 37.1565 8.13928 37.0557 8.05528 36.9633C6.96328 35.6613 6.06445 34.1997 5.40085 32.6121C5.38405 32.5953 5.38413 32.5785 5.37573 32.5533L6.03085 31.8561L6.05608 31.8225C6.15688 31.7217 6.24926 31.6293 6.35006 31.5369C6.45086 31.4361 6.54325 31.3437 6.65245 31.2597C6.75325 31.1757 6.86244 31.0833 6.96324 30.9993C7.07244 30.9153 7.18165 30.8313 7.29085 30.7473C7.74445 30.4281 8.22333 30.1593 8.73573 29.9493L11.3901 28.8069L11.4405 28.7817L14.7753 27.3453L14.8173 27.3201C15.5817 26.9925 16.136 26.3709 16.4048 25.6233C16.5056 25.3293 16.5561 25.0101 16.5561 24.6909V19.9197C16.5561 19.0377 16.3125 18.1641 15.8337 17.4165C14.9349 16.0137 14.4896 14.3001 14.7248 12.4605C14.834 11.6037 15.0945 10.7889 15.4809 10.0497C16.6149 7.86567 18.8157 6.29487 21.3693 6.01767C25.0317 5.62287 28.2321 7.79847 29.3577 10.9401C29.6433 11.7213 29.7945 12.5613 29.7945 13.4349C29.7945 13.6197 29.7861 13.8129 29.7693 13.9977L31.5837 16.3245C32.0121 16.8705 31.6173 17.6769 30.9117 17.6769H30.1893C30.1473 17.6769 30.0968 17.6769 30.0632 17.6853C29.7356 17.7441 29.4837 18.0297 29.4837 18.3741V20.3901C29.4753 22.0449 28.1145 23.3805 26.4261 23.3805H25.7205C25.1913 23.3805 24.7545 23.8089 24.7545 24.3381V25.0521C24.7545 25.1109 24.7545 25.1697 24.7545 25.2201C24.7545 25.2789 24.7713 25.3377 24.7797 25.3881C24.7965 25.4973 24.8133 25.5981 24.8469 25.7073C24.8637 25.7493 24.8721 25.7829 24.8889 25.8249C24.9057 25.8669 24.9141 25.9089 24.9393 25.9509C24.9561 25.9845 24.9729 26.0265 24.9897 26.0685C25.0317 26.1441 25.0736 26.2281 25.124 26.2953C25.1744 26.3709 25.2165 26.4465 25.2669 26.5053C25.3257 26.5725 25.3844 26.6397 25.4432 26.6985C25.4936 26.7489 25.5357 26.7993 25.5945 26.8413C25.6113 26.8581 25.628 26.8665 25.6448 26.8749C25.6784 26.9001 25.7037 26.9253 25.7373 26.9421C25.7709 26.9673 25.8129 26.9925 25.8465 27.0177C25.9557 27.0933 26.0649 27.1437 26.1909 27.2025L26.9301 27.5217L28.0053 27.9837L30.4413 29.0421L30.5001 29.0673L30.9621 29.2689L30.9957 29.2857L32.4824 29.9241C32.9948 30.1509 33.4821 30.4197 33.9357 30.7389C34.0449 30.8229 34.1625 30.8985 34.2717 30.9909C34.3809 31.0749 34.4901 31.1673 34.5993 31.2513C34.7085 31.3437 34.8093 31.4361 34.9101 31.5369C35.0109 31.6377 35.1032 31.7301 35.204 31.8309L36.8924 33.6537L36.9093 33.6621Z" fill="#FF9800"></path> <path d="M14.2882 35.3756C12.7678 36.686 10.7937 37.5008 8.6349 37.5932C8.6181 37.5932 8.58453 37.5932 8.56773 37.5932H8.55933C8.47533 37.5932 8.3998 37.5932 8.3158 37.5932C7.9378 37.2656 7.55974 36.938 7.20694 36.5852C7.01374 36.392 6.83731 36.2072 6.65251 36.0224C6.11491 35.4512 5.59416 34.8464 5.12375 34.208C4.88015 33.9056 4.65339 33.6032 4.42659 33.2924C4.28379 33.116 4.15771 32.9228 4.03171 32.738C3.92251 32.5868 3.82173 32.4272 3.72933 32.2676C3.28413 31.5704 2.88098 30.848 2.51978 30.1088L4.69535 29.1764H4.71216C5.26656 28.9832 5.63614 28.4792 5.63614 27.8996V25.22C5.63614 24.7496 5.51018 24.2876 5.25818 23.8844C4.77098 23.1452 4.54412 22.2212 4.67012 21.2468C4.70372 21.0116 4.75417 20.7764 4.82137 20.558C4.88857 20.348 4.97251 20.1548 5.07331 19.9616C5.35891 19.3988 5.78738 18.92 6.29978 18.5504C6.84578 18.1556 7.50099 17.8952 8.20659 17.8112C10.1554 17.6012 11.8606 18.7604 12.4738 20.432C12.625 20.8436 12.7006 21.2972 12.7006 21.7592C12.7006 21.86 12.7006 21.9608 12.6922 22.0616L13.6666 23.3048C13.8598 23.5652 13.717 23.9264 13.423 24.002C13.3894 24.0188 13.3473 24.0188 13.2969 24.0188H12.9106C12.9106 24.0188 12.8601 24.0188 12.8433 24.0272C12.6669 24.0524 12.5325 24.2036 12.5325 24.3884V25.4636C12.5325 25.7492 12.4569 26.018 12.3225 26.2448C12.0369 26.732 11.5162 27.0596 10.903 27.0596H10.5333C10.2477 27.0596 10.0125 27.2948 10.0125 27.572V27.95C10.0125 28.328 10.1805 28.6724 10.4577 28.9076C10.4997 28.9412 10.5418 28.9748 10.5922 29.0084C10.6258 29.0252 10.6678 29.0504 10.7014 29.0672C10.7182 29.084 10.7517 29.0924 10.7769 29.1008L10.8693 29.1428L11.1717 29.2688L13.3474 30.2096L14.1201 30.7724C15.6405 31.898 15.7162 34.1156 14.2882 35.3504V35.3756Z" fill="#FF5805"></path> <path d="M40.0676 30.7136C40.0088 30.8396 39.9416 30.9656 39.8744 31.0916C39.7568 31.31 39.6391 31.5116 39.5131 31.7216C39.4879 31.772 39.4543 31.8224 39.4207 31.8728C39.2359 32.1836 39.0344 32.4944 38.8244 32.7968C38.7152 32.9732 38.5891 33.1412 38.4715 33.3092C38.3623 33.4604 38.2531 33.6116 38.1439 33.7544C38.0347 33.8972 37.9256 34.04 37.808 34.1912C37.7996 34.1996 37.7912 34.2164 37.7744 34.2248C37.4216 34.6952 37.052 35.1488 36.6488 35.594C36.5816 35.6612 36.5144 35.7368 36.4388 35.8124C36.4304 35.8292 36.4136 35.846 36.3968 35.8712C36.2372 36.0392 36.0692 36.2072 35.9096 36.3752C35.792 36.5012 35.6744 36.6188 35.5484 36.728C35.1956 37.0724 34.826 37.4084 34.448 37.736C34.3556 37.736 34.2631 37.736 34.1707 37.7276C34.1287 37.7276 34.0951 37.7276 34.0615 37.7276C31.2475 37.6016 28.7612 36.2072 27.1904 34.1156C26.9132 33.746 26.7536 33.326 26.7284 32.8976C26.6696 32.108 27.0307 31.31 27.7699 30.8732C27.8035 30.8564 27.8288 30.8396 27.8456 30.8396L30.5084 29.6888L31.0123 29.4704H31.0292V29.462C31.0796 29.4452 31.13 29.4116 31.1804 29.3864C31.214 29.3696 31.2392 29.3528 31.2728 29.3276C31.3232 29.3024 31.3568 29.2688 31.3988 29.2352C31.7348 28.9496 31.9364 28.5296 31.9364 28.0844V25.5896C31.9364 25.3628 31.9027 25.1444 31.8439 24.926C31.7851 24.7076 31.6928 24.4808 31.5584 24.2792C31.0796 23.5484 30.8528 22.6496 30.9788 21.692C31.0376 21.2468 31.172 20.8184 31.3736 20.432C31.97 19.2812 33.1207 18.4664 34.4647 18.3236C36.0271 18.1556 37.4384 18.8864 38.2196 20.0624C38.396 20.3228 38.5388 20.6 38.648 20.9024C38.7992 21.3056 38.8747 21.7508 38.8747 22.2044C38.8747 22.2884 38.8747 22.3724 38.8747 22.4396C38.8747 22.4564 38.8747 22.4732 38.8747 22.4984L39.8239 23.7164C40.0423 24.002 39.8408 24.4136 39.4712 24.4136H39.0931C39.0931 24.4136 39.0428 24.4136 39.0344 24.422C38.858 24.4556 38.732 24.5984 38.732 24.7748V25.8332C38.732 26.7068 38.0096 27.3956 37.1276 27.3956H36.7664C36.4808 27.3956 36.2539 27.6224 36.2539 27.8912V28.2692C36.2539 28.7648 36.5479 29.2016 37.0099 29.3948L37.388 29.5628L39.5215 30.4868L40.0844 30.7304L40.0676 30.7136Z" fill="#FF5805"></path> <path d="M37.7659 34.2164C37.4131 34.6868 37.0436 35.1404 36.6404 35.5856C36.5732 35.6528 36.506 35.7284 36.4304 35.804C36.422 35.8208 36.4051 35.8376 36.3883 35.8628C36.2287 36.0308 36.0608 36.1988 35.9012 36.3668C35.7836 36.4928 35.6659 36.6104 35.5399 36.7196C35.1871 37.064 34.8176 37.4 34.4396 37.7276C34.2884 37.8536 34.1371 37.9796 33.9775 38.1056H33.9691C33.8011 38.2316 33.6331 38.366 33.4651 38.4836C30.0547 41.0372 25.9136 42.524 21.4364 42.524C16.5728 42.524 12.0872 40.76 8.52558 37.7948C8.51718 37.7864 8.50876 37.778 8.50876 37.778C8.44156 37.7192 8.37437 37.6688 8.30717 37.6016C7.92917 37.274 7.55112 36.9464 7.19832 36.5936C7.00512 36.4004 6.82869 36.2156 6.64389 36.0308C6.10629 35.4596 5.58553 34.8548 5.11513 34.2164C4.87153 33.8972 4.64477 33.5696 4.41797 33.242L4.80434 32.7884L5.45115 32.0156L5.47638 31.9736C5.57718 31.8728 5.67796 31.772 5.77876 31.6796C5.87956 31.5788 5.98877 31.478 6.09797 31.3856C6.19877 31.3016 6.30798 31.2092 6.42558 31.1168C6.53478 31.0328 6.6523 30.9488 6.7615 30.8648C7.2319 30.5372 7.72752 30.2516 8.25672 30.0332L10.6004 29.0252L11.0204 28.8488L11.0791 28.8236L14.5315 27.3368C14.5315 27.3368 14.5904 27.3872 14.6156 27.404C15.1532 27.8492 15.8336 28.3448 16.6064 28.7984C16.9928 29.0168 17.3959 29.2184 17.8243 29.3948C18.8239 29.8232 19.9495 30.1256 21.1423 30.1424C21.2431 30.1424 21.3356 30.1424 21.4364 30.1424C22.3352 30.1256 23.2675 29.9492 24.2083 29.5376C25.1575 29.1344 26.1151 28.5128 27.0727 27.6056C27.0895 27.5888 27.1231 27.5636 27.1399 27.5468L28.2488 28.034L30.7856 29.126L30.8443 29.1512L31.2475 29.3192L31.3651 29.3696L32.9023 30.0416C33.4399 30.2684 33.9439 30.5456 34.4143 30.8816C34.5319 30.9656 34.6496 31.0496 34.7672 31.142C34.8848 31.226 34.9939 31.3184 35.1031 31.4108C35.2123 31.4948 35.3131 31.604 35.4223 31.7048C35.5231 31.8056 35.6323 31.9064 35.7247 32.0072L37.4719 33.9224L37.7491 34.2248L37.7659 34.2164Z" fill="#2D375E"></path></svg>