<svg width="43" height="43" viewBox="0 0 43 43" fill="none" xmlns="http://www.w3.org/2000/svg" class="hd__nav__link__icon"><path d="M21.4099 42.3099C33.0079 42.3099 42.4099 32.9079 42.4099 21.3099C42.4099 9.71196 33.0079 0.309937 21.4099 0.309937C9.81193 0.309937 0.409912 9.71196 0.409912 21.3099C0.409912 32.9079 9.81193 42.3099 21.4099 42.3099Z" fill="#FFF3E6"></path> <path d="M22.3339 10.6251H15.7398C13.063 10.6251 10.8931 12.7951 10.8931 15.4719V24.5691C10.8931 27.2459 13.063 29.4159 15.7398 29.4159H22.3339C25.0107 29.4159 27.1807 27.2459 27.1807 24.5691V15.4719C27.1807 12.7951 25.0107 10.6251 22.3339 10.6251Z" fill="#2A3362"></path> <path d="M26.6431 14.3296H19.3267C16.8262 14.3296 14.7991 16.3567 14.7991 18.8572V28.6936C14.7991 31.1941 16.8262 33.2212 19.3267 33.2212H26.6431C29.1436 33.2212 31.1707 31.1941 31.1707 28.6936V18.8572C31.1707 16.3567 29.1436 14.3296 26.6431 14.3296Z" fill="#FF9800"></path> <path d="M27.4159 25.6948H18.3102C17.8092 25.6948 17.4031 26.101 17.4031 26.602V26.6104C17.4031 27.1115 17.8092 27.5176 18.3102 27.5176H27.4159C27.9169 27.5176 28.3231 27.1115 28.3231 26.6104V26.602C28.3231 26.101 27.9169 25.6948 27.4159 25.6948Z" fill="#FF5805"></path> <path d="M27.4159 22.0575H18.3102C17.8092 22.0575 17.4031 22.4637 17.4031 22.9647V22.9731C17.4031 23.4741 17.8092 23.8803 18.3102 23.8803H27.4159C27.9169 23.8803 28.3231 23.4741 28.3231 22.9731V22.9647C28.3231 22.4637 27.9169 22.0575 27.4159 22.0575Z" fill="#FF5805"></path> <path d="M19.9147 18.4204H18.3102C17.8092 18.4204 17.4031 18.8266 17.4031 19.3276V19.336C17.4031 19.837 17.8092 20.2432 18.3102 20.2432H19.9147C20.4157 20.2432 20.8219 19.837 20.8219 19.336V19.3276C20.8219 18.8266 20.4157 18.4204 19.9147 18.4204Z" fill="white"></path></svg>