<svg width="43" height="43" viewBox="0 0 43 43" fill="none" xmlns="http://www.w3.org/2000/svg" class="hd__nav__link__icon"><path d="M27.7202 0.698486L15.6767 0.698486C7.40448 0.698486 0.698486 7.40448 0.698486 15.6767L0.698486 27.7202C0.698486 35.9925 7.40448 42.6985 15.6767 42.6985H27.7202C35.9925 42.6985 42.6985 35.9925 42.6985 27.7202V15.6767C42.6985 7.40448 35.9925 0.698486 27.7202 0.698486Z" fill="#FFE9D6"></path> <path d="M36.9292 19.5838L30.6259 25.887C29.9717 26.5413 28.9079 26.5356 28.2594 25.8871L27.1102 24.7379L27.7019 24.1463C28.3561 23.492 28.3504 22.4282 27.7019 21.7797C27.0534 21.1312 25.9838 21.1311 25.3353 21.7797L24.7437 22.3713L22.3714 19.9991L22.9631 19.4075C23.6173 18.7532 23.6116 17.6894 22.963 17.0408C22.3145 16.3923 21.245 16.3923 20.5965 17.0409L20.0049 17.6325L18.8557 16.4833C18.2015 15.8291 18.2072 14.7653 18.8557 14.1168L25.159 7.81355C25.597 7.3755 26.3593 7.39822 26.8428 7.88177L28.1456 9.18455C28.5495 9.58846 28.6292 10.1915 28.3732 10.6409C27.4857 12.1427 27.7531 14.2192 29.1412 15.6073C30.5293 16.9954 32.6 17.2684 34.1076 16.3753C34.557 16.1193 35.16 16.1989 35.5753 16.6142L36.8666 17.9055C37.3502 18.3891 37.3729 19.1514 36.9349 19.5895L36.9292 19.5838Z" fill="#FF9800"></path> <path d="M25.8871 30.6257L19.5838 36.929C19.1458 37.367 18.3834 37.3442 17.8999 36.8607L16.6086 35.5694C16.1933 35.1541 16.1136 34.5511 16.3696 34.1016C17.2571 32.5998 16.9897 30.5233 15.6016 29.1352C14.2135 27.7472 12.1428 27.4741 10.6352 28.3672C10.1858 28.6232 9.5828 28.5436 9.17889 28.1397L7.87612 26.8369C7.39257 26.3533 7.36985 25.5911 7.80789 25.153L14.1112 18.8498C14.7654 18.1956 15.8292 18.2012 16.4777 18.8498L17.6269 19.9989L17.0352 20.5906C16.381 21.2448 16.3867 22.3086 17.0352 22.9571C17.6837 23.6056 18.7533 23.6057 19.4018 22.9572L19.9934 22.3655L22.3656 24.7377L21.774 25.3294C21.1198 25.9836 21.1255 27.0474 21.7741 27.696C22.4226 28.3445 23.4921 28.3445 24.1406 27.696L24.7322 27.1043L25.8814 28.2535C26.5356 28.9077 26.5299 29.9715 25.8814 30.62L25.8871 30.6257Z" fill="#FF9800"></path> <path d="M22.9571 19.4018L22.3654 19.9934L19.9931 17.6211L20.5848 17.0295C21.239 16.3753 22.3028 16.3809 22.9513 17.0294C23.5999 17.678 23.5999 18.7475 22.9514 19.3961L22.9571 19.4018Z" fill="#FF5805"></path> <path d="M19.9933 22.3656L19.4016 22.9573C18.7474 23.6115 17.6836 23.6057 17.035 22.9572C16.3865 22.3087 16.3865 21.2392 17.0351 20.5907L17.6267 19.999L19.999 22.3713L19.9933 22.3656Z" fill="#FF5805"></path> <path d="M22.3713 19.9991L19.999 17.6268L17.6268 19.9991L19.999 22.3714L22.3713 19.9991Z" fill="#2D375E"></path> <path d="M27.7019 24.1463L27.1103 24.7379L24.738 22.3656L25.3296 21.774C25.9839 21.1198 27.0477 21.1255 27.6963 21.774C28.3448 22.4226 28.3448 23.492 27.6962 24.1406L27.7019 24.1463Z" fill="#FF5805"></path> <path d="M24.7379 27.1101L24.1463 27.7018C23.4921 28.356 22.4283 28.3503 21.7797 27.7018C21.1312 27.0532 21.1312 25.9837 21.7797 25.3352L22.3713 24.7435L24.7436 27.1158L24.7379 27.1101Z" fill="#FF5805"></path> <path d="M27.1101 24.7378L24.7378 22.3655L22.3655 24.7377L24.7378 27.11L27.1101 24.7378Z" fill="#2D375E"></path></svg>