<svg width="42" height="42" viewBox="0 0 42 42" fill="none" xmlns="http://www.w3.org/2000/svg" class="hd__nav__link__icon"><path d="M27.0217 0H14.9782C6.70599 0 0 6.70599 0 14.9782V27.0217C0 35.294 6.70599 42 14.9782 42H27.0217C35.294 42 42 35.294 42 27.0217V14.9782C42 6.70599 35.294 0 27.0217 0Z" fill="#FFE9D6"></path> <path d="M30.9567 11H10.7364C9.22511 11 8 12.2232 8 13.7322C8 15.2411 9.22511 16.4643 10.7364 16.4643H30.9567C32.468 16.4643 33.6931 15.2411 33.6931 13.7322C33.6931 12.2232 32.468 11 30.9567 11Z" fill="#2D375E"></path> <path d="M26.3986 13.1824H15.2938C13.6806 13.1824 12.3728 14.4901 12.3728 16.1034V28.845C12.3728 30.4583 13.6806 31.766 15.2938 31.766H26.3986C28.0119 31.766 29.3196 30.4583 29.3196 28.845V16.1034C29.3196 14.4901 28.0119 13.1824 26.3986 13.1824Z" fill="#FF9800"></path> <path d="M20.8503 25.7561H19.331C18.7015 25.7561 18.3574 26.4864 18.7603 26.9648L20.2795 28.8198C20.5733 29.1807 21.1273 29.1807 21.4295 28.8198L22.9488 26.9648C23.3433 26.478 22.9991 25.7561 22.3779 25.7561H20.8587H20.8503Z" fill="#FF5805"></path></svg>